# xmcd
#
# Track frame offsets: 
#        150
#        18452
#        35005
#        53614
#        67800
#        90270
#        111595
#        135745
#        152437
#        171072
#        194760
#        211177
#        233290
#        253850
#
# Disc length: 4395 seconds
#
# Revision: 0
# Processed by: cddbd v1.5.2PL0 Copyright (c) Steve Scherf et al.
# Submitted via: ExactAudioCopy v0.99pb4
#
DISCID=b311290e
DTITLE=Golpe de Estado - Forçando a Barra
DYEAR=1988
DGENRE=Rock nacional
TTITLE0=Cobra criada
TTITLE1=Noite de balada
TTITLE2=Parte do Inferno
TTITLE3=Onde ha fumaca ha fogo
TTITLE4=Sem elas
TTITLE5=Moondog
TTITLE6=Terra de ninguem
TTITLE7=Muito chefe
TTITLE8=Forcando a barra
TTITLE9=Society (ao vivo)
TTITLE10=Noite de balada (ao vivo)
TTITLE11=Onde ha fumaca ha fogo (ao vivo)
TTITLE12=Moondog (ao vivo)
TTITLE13=Sem elas (ao vivo)
EXTD=
EXTT0=
EXTT1=
EXTT2=
EXTT3=
EXTT4=
EXTT5=
EXTT6=
EXTT7=
EXTT8=
EXTT9=
EXTT10=
EXTT11=
EXTT12=
EXTT13=
PLAYORDER=
